<?xml version="1.0" ?>
<svg xmlns="http://www.w3.org/2000/svg">
    <symbol id="i-instagram" viewBox="0 0 24 24">
        <path style="fill: currentColor" d="M15.5,3h-7A5.5,5.5,0,0,0,3,8.5v7A5.5,5.5,0,0,0,8.5,21h7A5.5,5.5,0,0,0,21,15.5v-7A5.5,5.5,0,0,0,15.5,3Zm4,12.5a4.00454,4.00454,0,0,1-4,4h-7a4.00454,4.00454,0,0,1-4-4v-7a4.0045,4.0045,0,0,1,4-4h7a4.0045,4.0045,0,0,1,4,4Z"/>
        <path style="fill: currentColor" d="M12,7.5A4.5,4.5,0,1,0,16.5,12,4.5,4.5,0,0,0,12,7.5ZM12,15a3,3,0,1,1,3-3A3.0034,3.0034,0,0,1,12,15Z"/>
        <circle style="fill: currentColor" cx="16.70001" cy="7.29999" r="1"/>
    </symbol>

    <symbol id="i-vk" viewBox="0 0 24 24">
        <path style="fill: currentColor" d="M21.54736,7H18.25688a.74281.74281,0,0,0-.65452.39156s-1.31237,2.41693-1.73392,3.231C14.73438,12.8125,14,12.125,14,11.10863V7.60417A1.10417,1.10417,0,0,0,12.89583,6.5h-2.474a1.9818,1.9818,0,0,0-1.751.8125s1.25626-.20312,1.25626,1.48958c0,.41974.02162,1.62723.04132,2.64a.72943.72943,0,0,1-1.273.50431,21.54029,21.54029,0,0,1-2.4982-4.54359A.69314.69314,0,0,0,5.5668,7C4.8532,7,3.42522,7,2.57719,7a.508.508,0,0,0-.47969.68481C3.00529,10.17487,6.91576,18,11.37917,18h1.87865A.74219.74219,0,0,0,14,17.25781V16.12342a.7293.7293,0,0,1,1.22868-.5315l2.24861,2.1127A1.08911,1.08911,0,0,0,18.223,18h2.95281c1.42415,0,1.42415-.98824.64768-1.75294-.54645-.53817-2.51832-2.61663-2.51832-2.61663A1.01862,1.01862,0,0,1,19.2268,12.307c.63737-.83876,1.67988-2.21175,2.122-2.79993C21.95313,8.70313,23.04688,7,21.54736,7Z"/>
    </symbol>

    <symbol id="i-behance" viewBox="0 0 512 512">
        <path style="fill: currentColor" d="M169.4,203c12.1,0,23.1,1,33.1,3.2c9.9,2.1,18.4,5.6,25.6,10.5c7.1,4.8,12.6,11.3,16.5,19.3   s5.8,18,5.8,29.8c0,12.8-2.9,23.4-8.7,32c-5.8,8.5-14.4,15.5-25.9,20.9c15.6,4.5,27.2,12.4,34.8,23.6c7.7,11.3,11.5,24.8,11.5,40.7   c0,12.9-2.5,23.9-7.4,33.2c-5,9.4-11.7,17.1-20.1,23c-8.4,5.9-18,10.3-28.8,13.2c-10.7,2.8-21.8,4.3-33.1,4.3H49.9V203H169.4z    M162.2,305.4c9.9,0,18.1-2.3,24.6-7.1c6.4-4.7,9.5-12.4,9.5-23.1c0-5.9-1-10.8-3.1-14.6c-2.2-3.8-5-6.7-8.6-8.8   c-3.6-2.2-7.6-3.6-12.3-4.5c-4.6-0.9-9.4-1.3-14.4-1.3h-52.2v59.3h56.5V305.4z M165.3,413.4c5.5,0,10.7-0.5,15.7-1.6   s9.4-2.8,13.2-5.4c3.7-2.5,6.8-5.8,9.1-10.1c2.3-4.3,3.3-9.8,3.3-16.4c0-13.1-3.7-22.3-11-28c-7.3-5.6-17.1-8.3-29.1-8.3h-60.7   v69.8L165.3,413.4L165.3,413.4z" id="XMLID_102_"/>
        <path style="fill: currentColor" d="M341.8,412.5c7.6,7.4,18.5,11.1,32.6,11.1c10.2,0,19-2.6,26.3-7.7s11.8-10.6,13.5-16.3h44.4   c-7.1,22.1-18,37.9-32.7,47.4c-14.6,9.5-32.4,14.3-53.2,14.3c-14.5,0-27.5-2.3-39.2-7s-21.4-11.2-29.6-19.7   c-8-8.6-14.2-18.7-18.6-30.6c-4.4-11.8-6.6-24.9-6.6-39.1c0-13.7,2.3-26.6,6.8-38.4c4.6-11.9,10.9-22.2,19.2-30.8   c8.3-8.7,18.2-15.5,29.8-20.5c11.5-5,24.2-7.5,38.3-7.5c15.5,0,29.1,3,40.8,9.1c11.6,6,21.1,14.1,28.6,24.3   c7.5,10.2,12.8,21.8,16.1,34.8c3.3,13,4.5,26.6,3.5,40.9H329.3C329.3,391.4,334.2,405.2,341.8,412.5z M399.7,316.1   c-6-6.6-16.1-10.2-28.5-10.2c-8.1,0-14.7,1.4-20.1,4.1c-5.2,2.7-9.5,6.1-12.8,10.1c-3.3,4.1-5.5,8.4-6.8,12.9s-2.1,8.5-2.3,12.1   h82.1C410.2,332.3,405.8,322.8,399.7,316.1z" id="XMLID_99_"/>
        <rect style="fill: currentColor" height="25" id="XMLID_98_" width="102.8" x="319" y="220"/>
    </symbol>

    <symbol id="i-infinity" viewBox="0 0 477.867 477.867">
        <path style="fill: currentColor" d="M375.467,136.533c-53.333,0-110.933,51.661-136.533,77.534c-25.6-25.873-83.2-77.534-136.533-77.534
			c-64.119,0-102.4,38.281-102.4,102.4s38.281,102.4,102.4,102.4c53.333,0,110.933-51.661,136.533-77.534
			c25.6,25.873,83.2,77.534,136.533,77.534c64.12,0,102.4-38.281,102.4-102.4S439.586,136.533,375.467,136.533z M102.4,307.2
			c-45.295,0-68.267-22.972-68.267-68.267s22.972-68.267,68.267-68.267c37.547,0,87.381,42.308,113.118,68.267
			C189.833,264.926,140.1,307.2,102.4,307.2z M375.467,307.2c-37.547,0-87.381-42.308-113.118-68.267
			c25.6-25.975,75.418-68.267,113.118-68.267c45.295,0,68.267,22.972,68.267,68.267S420.762,307.2,375.467,307.2z"/>
    </symbol>
</svg>